<?xml version="1.0" encoding="UTF-8" standalone="no"?>
<!-- Created with Inkscape (http://www.inkscape.org/) -->

<svg
   xmlns:dc="http://purl.org/dc/elements/1.1/"
   xmlns:cc="http://creativecommons.org/ns#"
   xmlns:rdf="http://www.w3.org/1999/02/22-rdf-syntax-ns#"
   xmlns:svg="http://www.w3.org/2000/svg"
   xmlns="http://www.w3.org/2000/svg"
   xmlns:xlink="http://www.w3.org/1999/xlink"
   xmlns:sodipodi="http://sodipodi.sourceforge.net/DTD/sodipodi-0.dtd"
   xmlns:inkscape="http://www.inkscape.org/namespaces/inkscape"
   width="744.09448819"
   height="1052.3622047"
   id="svg2"
   version="1.1"
   inkscape:version="0.48.0 r9654"
   sodipodi:docname="New document 1">
  <defs
     id="defs4">
    <linearGradient
       id="linearGradient4885">
      <stop
         style="stop-color:#5dd922;stop-opacity:1;"
         offset="0"
         id="stop4887" />
      <stop
         style="stop-color:#00b41e;stop-opacity:1;"
         offset="1"
         id="stop4889" />
    </linearGradient>
    <linearGradient
       id="linearGradient4875">
      <stop
         style="stop-color:#3744ff;stop-opacity:1;"
         offset="0"
         id="stop4877" />
      <stop
         style="stop-color:#00cdf1;stop-opacity:1;"
         offset="1"
         id="stop4879" />
    </linearGradient>
    <linearGradient
       inkscape:collect="always"
       xlink:href="#linearGradient4885-0"
       id="linearGradient4891-3"
       x1="-21.047737"
       y1="299.90555"
       x2="40.926159"
       y2="299.90555"
       gradientUnits="userSpaceOnUse" />
    <linearGradient
       id="linearGradient4885-0">
      <stop
         style="stop-color:#5dd922;stop-opacity:1;"
         offset="0"
         id="stop4887-2" />
      <stop
         style="stop-color:#00b41e;stop-opacity:1;"
         offset="1"
         id="stop4889-2" />
    </linearGradient>
    <linearGradient
       inkscape:collect="always"
       xlink:href="#linearGradient4885-0"
       id="linearGradient4989"
       gradientUnits="userSpaceOnUse"
       gradientTransform="matrix(0.85628741,0,0,0.60000002,237.99138,333.59675)"
       x1="-21.047737"
       y1="299.90555"
       x2="40.926159"
       y2="299.90555" />
    <linearGradient
       inkscape:collect="always"
       xlink:href="#linearGradient4875"
       id="linearGradient4991"
       gradientUnits="userSpaceOnUse"
       x1="124.61711"
       y1="399.29764"
       x2="443.67184"
       y2="399.29764" />
    <linearGradient
       inkscape:collect="always"
       xlink:href="#linearGradient4885-0"
       id="linearGradient5049"
       gradientUnits="userSpaceOnUse"
       gradientTransform="matrix(0.85628741,0,0,0.60000002,679.26501,-115.38037)"
       x1="-21.047737"
       y1="299.90555"
       x2="40.926159"
       y2="299.90555" />
    <linearGradient
       inkscape:collect="always"
       xlink:href="#linearGradient4885-0"
       id="linearGradient5063"
       gradientUnits="userSpaceOnUse"
       gradientTransform="matrix(0.85628741,0,0,0.60000002,237.99138,333.59675)"
       x1="-21.047737"
       y1="299.90555"
       x2="40.926159"
       y2="299.90555" />
    <linearGradient
       inkscape:collect="always"
       xlink:href="#linearGradient4885-0"
       id="linearGradient5072"
       gradientUnits="userSpaceOnUse"
       gradientTransform="matrix(0.85628741,0,0,0.60000002,245.00729,-44.09322)"
       x1="-21.047737"
       y1="299.90555"
       x2="40.926159"
       y2="299.90555" />
    <linearGradient
       inkscape:collect="always"
       xlink:href="#linearGradient4885-0"
       id="linearGradient5082"
       gradientUnits="userSpaceOnUse"
       gradientTransform="matrix(0.85628741,0,0,0.60000002,245.00729,-44.09322)"
       x1="-21.047737"
       y1="299.90555"
       x2="40.926159"
       y2="299.90555" />
    <linearGradient
       inkscape:collect="always"
       xlink:href="#linearGradient4885-0"
       id="linearGradient5092"
       gradientUnits="userSpaceOnUse"
       gradientTransform="matrix(0.85628741,0,0,0.60000002,245.00729,-44.09322)"
       x1="-21.047737"
       y1="299.90555"
       x2="40.926159"
       y2="299.90555" />
    <linearGradient
       inkscape:collect="always"
       xlink:href="#linearGradient4885-0"
       id="linearGradient5095"
       gradientUnits="userSpaceOnUse"
       gradientTransform="matrix(0.42915919,-0.00299677,-0.00347981,0.35188092,199.80352,196.13738)"
       x1="-21.047737"
       y1="299.90555"
       x2="40.926159"
       y2="299.90555" />
    <linearGradient
       inkscape:collect="always"
       xlink:href="#linearGradient4875"
       id="linearGradient5099"
       gradientUnits="userSpaceOnUse"
       x1="124.61711"
       y1="399.29764"
       x2="443.67184"
       y2="399.29764" />
    <linearGradient
       inkscape:collect="always"
       xlink:href="#linearGradient4885-0"
       id="linearGradient5116"
       gradientUnits="userSpaceOnUse"
       gradientTransform="matrix(0.42915919,-0.00299677,-0.00347981,0.35188092,199.80352,196.13738)"
       x1="-21.047737"
       y1="299.90555"
       x2="40.926159"
       y2="299.90555" />
    <linearGradient
       inkscape:collect="always"
       xlink:href="#linearGradient4875"
       id="linearGradient5123"
       gradientUnits="userSpaceOnUse"
       x1="124.61711"
       y1="399.29764"
       x2="443.67184"
       y2="399.29764" />
    <linearGradient
       inkscape:collect="always"
       xlink:href="#linearGradient4875"
       id="linearGradient5127"
       gradientUnits="userSpaceOnUse"
       x1="124.61711"
       y1="399.29764"
       x2="443.67184"
       y2="399.29764" />
    <linearGradient
       inkscape:collect="always"
       xlink:href="#linearGradient4885-0"
       id="linearGradient5140"
       gradientUnits="userSpaceOnUse"
       gradientTransform="matrix(0.42915919,-0.00299677,-0.00347981,0.35188092,199.80352,196.13738)"
       x1="-21.047737"
       y1="299.90555"
       x2="40.926159"
       y2="299.90555" />
    <linearGradient
       inkscape:collect="always"
       xlink:href="#linearGradient4875"
       id="linearGradient5142"
       gradientUnits="userSpaceOnUse"
       x1="124.61711"
       y1="399.29764"
       x2="443.67184"
       y2="399.29764" />
    <linearGradient
       inkscape:collect="always"
       xlink:href="#linearGradient4875"
       id="linearGradient5144"
       gradientUnits="userSpaceOnUse"
       x1="124.61711"
       y1="399.29764"
       x2="443.67184"
       y2="399.29764" />
    <linearGradient
       inkscape:collect="always"
       xlink:href="#linearGradient4885-0"
       id="linearGradient5154"
       gradientUnits="userSpaceOnUse"
       gradientTransform="matrix(0.42915919,-0.00299677,-0.00347981,0.35188092,199.80352,196.13738)"
       x1="-21.047737"
       y1="299.90555"
       x2="40.926159"
       y2="299.90555" />
    <linearGradient
       inkscape:collect="always"
       xlink:href="#linearGradient4885-0"
       id="linearGradient5164"
       gradientUnits="userSpaceOnUse"
       gradientTransform="matrix(0.42915919,-0.00299677,-0.00347981,0.35188092,199.80352,196.13738)"
       x1="-21.047737"
       y1="299.90555"
       x2="40.926159"
       y2="299.90555" />
    <linearGradient
       inkscape:collect="always"
       xlink:href="#linearGradient4885-0"
       id="linearGradient5176"
       gradientUnits="userSpaceOnUse"
       gradientTransform="matrix(0.42915919,-0.00299677,-0.00347981,0.35188092,199.80352,196.13738)"
       x1="-21.047737"
       y1="299.90555"
       x2="40.926159"
       y2="299.90555" />
    <linearGradient
       inkscape:collect="always"
       xlink:href="#linearGradient4885-0"
       id="linearGradient5192"
       gradientUnits="userSpaceOnUse"
       gradientTransform="matrix(0.42915919,-0.00299677,-0.00347981,0.35188092,199.80352,196.13738)"
       x1="-21.047737"
       y1="299.90555"
       x2="40.926159"
       y2="299.90555" />
    <linearGradient
       inkscape:collect="always"
       xlink:href="#linearGradient4885-0"
       id="linearGradient5197"
       gradientUnits="userSpaceOnUse"
       gradientTransform="matrix(0.42915919,-0.00299677,-0.00347981,0.35188092,199.80352,196.13738)"
       x1="-21.047737"
       y1="299.90555"
       x2="40.926159"
       y2="299.90555" />
    <linearGradient
       inkscape:collect="always"
       xlink:href="#linearGradient4885-0"
       id="linearGradient5290"
       gradientUnits="userSpaceOnUse"
       gradientTransform="matrix(0.85628741,0,0,0.60000002,237.99138,333.59675)"
       x1="-21.047737"
       y1="299.90555"
       x2="40.926159"
       y2="299.90555" />
    <linearGradient
       inkscape:collect="always"
       xlink:href="#linearGradient4885-0"
       id="linearGradient5292"
       gradientUnits="userSpaceOnUse"
       gradientTransform="matrix(0.42915919,-0.00299677,-0.00347981,0.35188092,199.80352,196.13738)"
       x1="-21.047737"
       y1="299.90555"
       x2="40.926159"
       y2="299.90555" />
    <linearGradient
       inkscape:collect="always"
       xlink:href="#linearGradient4885-0"
       id="linearGradient5294"
       gradientUnits="userSpaceOnUse"
       gradientTransform="matrix(0.85628741,0,0,0.60000002,237.99138,333.59675)"
       x1="-21.047737"
       y1="299.90555"
       x2="40.926159"
       y2="299.90555" />
    <linearGradient
       inkscape:collect="always"
       xlink:href="#linearGradient4875"
       id="linearGradient5370"
       gradientUnits="userSpaceOnUse"
       x1="124.61711"
       y1="399.29764"
       x2="443.67184"
       y2="399.29764" />
    <clipPath
       clipPathUnits="userSpaceOnUse"
       id="clipPath5372">
      <path
         sodipodi:type="arc"
         style="fill:url(#linearGradient5376);fill-opacity:1;fill-rule:evenodd;stroke:none"
         id="path5374"
         sodipodi:cx="284.14447"
         sodipodi:cy="399.29764"
         sodipodi:rx="159.02736"
         sodipodi:ry="136.22563"
         d="m 443.17183,399.29764 a 159.02736,136.22563 0 1 1 -318.05472,0 159.02736,136.22563 0 1 1 318.05472,0 z"
         transform="matrix(0.74264706,0,0,0.81974248,-15.74282,87.177543)" />
    </clipPath>
    <linearGradient
       inkscape:collect="always"
       xlink:href="#linearGradient4875"
       id="linearGradient5376"
       gradientUnits="userSpaceOnUse"
       x1="124.61711"
       y1="399.29764"
       x2="443.67184"
       y2="399.29764" />
    <clipPath
       clipPathUnits="userSpaceOnUse"
       id="clipPath5378">
      <path
         sodipodi:type="arc"
         style="fill:url(#linearGradient5382);fill-opacity:1;fill-rule:evenodd;stroke:none"
         id="path5380"
         sodipodi:cx="284.14447"
         sodipodi:cy="399.29764"
         sodipodi:rx="159.02736"
         sodipodi:ry="136.22563"
         d="m 443.17183,399.29764 a 159.02736,136.22563 0 1 1 -318.05472,0 159.02736,136.22563 0 1 1 318.05472,0 z"
         transform="matrix(-0.27916147,-0.01142415,0.01883878,-0.27778873,94.163958,463.71532)" />
    </clipPath>
    <linearGradient
       inkscape:collect="always"
       xlink:href="#linearGradient4875"
       id="linearGradient5382"
       gradientUnits="userSpaceOnUse"
       x1="124.61711"
       y1="399.29764"
       x2="443.67184"
       y2="399.29764" />
    <clipPath
       clipPathUnits="userSpaceOnUse"
       id="clipPath5384">
      <path
         sodipodi:type="arc"
         style="fill:url(#linearGradient5388);fill-opacity:1;fill-rule:evenodd;stroke:none"
         id="path5386"
         sodipodi:cx="284.14447"
         sodipodi:cy="399.29764"
         sodipodi:rx="159.02736"
         sodipodi:ry="136.22563"
         d="m 443.17183,399.29764 a 159.02736,136.22563 0 1 1 -318.05472,0 159.02736,136.22563 0 1 1 318.05472,0 z"
         transform="matrix(0.74264706,0,0,0.81974248,-118.64287,-57.817982)" />
    </clipPath>
    <linearGradient
       inkscape:collect="always"
       xlink:href="#linearGradient4875"
       id="linearGradient5388"
       gradientUnits="userSpaceOnUse"
       x1="124.61711"
       y1="399.29764"
       x2="443.67184"
       y2="399.29764" />
    <clipPath
       clipPathUnits="userSpaceOnUse"
       id="clipPath5390">
      <path
         sodipodi:type="arc"
         style="fill:url(#linearGradient5394);fill-opacity:1;fill-rule:evenodd;stroke:none"
         id="path5392"
         sodipodi:cx="284.14447"
         sodipodi:cy="399.29764"
         sodipodi:rx="159.02736"
         sodipodi:ry="136.22563"
         d="m 443.17183,399.29764 a 159.02736,136.22563 0 1 1 -318.05472,0 159.02736,136.22563 0 1 1 318.05472,0 z"
         transform="matrix(0.74264706,0,0,0.81974248,-15.74282,87.177543)" />
    </clipPath>
    <linearGradient
       inkscape:collect="always"
       xlink:href="#linearGradient4875"
       id="linearGradient5394"
       gradientUnits="userSpaceOnUse"
       x1="124.61711"
       y1="399.29764"
       x2="443.67184"
       y2="399.29764" />
  </defs>
  <sodipodi:namedview
     id="base"
     pagecolor="#ffffff"
     bordercolor="#666666"
     borderopacity="1.0"
     inkscape:pageopacity="0.0"
     inkscape:pageshadow="2"
     inkscape:zoom="0.35651146"
     inkscape:cx="219.72561"
     inkscape:cy="843.98737"
     inkscape:document-units="px"
     inkscape:current-layer="layer1"
     showgrid="false"
     inkscape:window-width="1680"
     inkscape:window-height="988"
     inkscape:window-x="1272"
     inkscape:window-y="-8"
     inkscape:window-maximized="1" />
  <metadata
     id="metadata7">
    <rdf:RDF>
      <cc:Work
         rdf:about="">
        <dc:format>image/svg+xml</dc:format>
        <dc:type
           rdf:resource="http://purl.org/dc/dcmitype/StillImage" />
        <dc:title></dc:title>
      </cc:Work>
    </rdf:RDF>
  </metadata>
  <g
     inkscape:label="Layer 1"
     inkscape:groupmode="layer"
     id="layer1">
    <path
       transform="matrix(0.74264706,0,0,0.81974248,50.30648,-25.575668)"
       d="m 443.17183,399.29764 a 159.02736,136.22563 0 1 1 -318.05472,0 159.02736,136.22563 0 1 1 318.05472,0 z"
       sodipodi:ry="136.22563"
       sodipodi:rx="159.02736"
       sodipodi:cy="399.29764"
       sodipodi:cx="284.14447"
       id="path5368"
       style="fill:url(#linearGradient5370);fill-opacity:1;fill-rule:evenodd;stroke:none"
       sodipodi:type="arc"
       inkscape:export-filename="c:\users\mkrautz\desktop\globe.png"
       inkscape:export-xdpi="19.813515"
       inkscape:export-ydpi="19.813515" />
    <g
       id="g4978"
       transform="translate(66.049299,-112.75321)"
       clip-path="url(#clipPath5390)"
       inkscape:export-filename="c:\users\mkrautz\desktop\globe.png"
       inkscape:export-xdpi="19.813515"
       inkscape:export-ydpi="19.813515">
      <path
         id="path4974"
         style="fill:url(#linearGradient5294);fill-opacity:1;stroke:none"
         d="m 273.03593,513.54008 c 0,15.30539 -11.87955,27.71286 -26.53373,27.71286 -14.65418,0 -26.53373,-12.40747 -26.53373,-27.71286 0,-15.30539 11.87955,-27.71285 26.53373,-27.71285 14.65418,0 26.53373,12.40746 26.53373,27.71285 z m -30.53882,5.96353 c 0,15.30539 -11.87956,27.71286 -26.53373,27.71286 -14.65418,0 -26.53374,-12.40747 -26.53374,-27.71286 0,-15.30538 11.87956,-27.71285 26.53374,-27.71285 14.65417,0 26.53373,12.40747 26.53373,27.71285 z m 16.50699,8.0683 c 0,15.30539 -11.87955,27.71286 -26.53372,27.71286 -14.65418,0 -26.53374,-12.40747 -26.53374,-27.71286 0,-15.30539 11.87956,-27.71285 26.53374,-27.71285 14.65417,0 26.53372,12.40746 26.53372,27.71285 z m -30.53882,5.96353 c 0,15.30539 -11.87955,27.71286 -26.53373,27.71286 -14.65418,0 -26.53373,-12.40747 -26.53373,-27.71286 0,-15.30538 11.87955,-27.71285 26.53373,-27.71285 14.65418,0 26.53373,12.40747 26.53373,27.71285 z"
         inkscape:connector-curvature="0" />
    </g>
    <g
       id="g5051">
      <g
         id="g5033"
         transform="matrix(0.46107779,0,0,0.65891476,-243.40735,210.14261)" />
      <g
         transform="matrix(0.46107779,0,0,0.65891476,-227.03689,189.09487)"
         id="g5039" />
    </g>
    <g
       id="g5065"
       transform="translate(168.94935,32.242322)"
       clip-path="url(#clipPath5384)"
       inkscape:export-filename="c:\users\mkrautz\desktop\globe.png"
       inkscape:export-xdpi="19.813515"
       inkscape:export-ydpi="19.813515">
      <g
         id="g5045"
         transform="matrix(0.46107779,0,0,0.65891476,-256.26986,557.43029)" />
      <g
         id="g5059"
         transform="translate(-205.80011,49.111386)">
        <path
           id="path5061"
           style="fill:url(#linearGradient5072);fill-opacity:1;stroke:none"
           d="m 280.05184,135.85011 c 0,15.30539 -11.87955,27.71286 -26.53373,27.71286 -14.65418,0 -26.53373,-12.40747 -26.53373,-27.71286 0,-15.30539 11.87955,-27.71285 26.53373,-27.71285 14.65418,0 26.53373,12.40746 26.53373,27.71285 z m -30.53882,5.96353 c 0,15.30539 -11.87956,27.71286 -26.53373,27.71286 -14.65418,0 -26.53374,-12.40747 -26.53374,-27.71286 0,-15.30538 11.87956,-27.71285 26.53374,-27.71285 14.65417,0 26.53373,12.40747 26.53373,27.71285 z m 16.50699,8.0683 c 0,15.30539 -11.87955,27.71286 -26.53372,27.71286 -14.65418,0 -26.53374,-12.40747 -26.53374,-27.71286 0,-15.30539 11.87956,-27.71285 26.53374,-27.71285 14.65417,0 26.53372,12.40746 26.53372,27.71285 z m -30.53882,5.96353 c 0,15.30539 -11.87955,27.71286 -26.53373,27.71286 -14.65418,0 -26.53373,-12.40747 -26.53373,-27.71286 0,-15.30538 11.87955,-27.71285 26.53373,-27.71285 14.65418,0 26.53373,12.40747 26.53373,27.71285 z m 50.41724,17.32495 c 0,10.08495 -5.47739,18.26041 -12.23411,18.26041 -6.75672,0 -12.23411,-8.17546 -12.23411,-18.26041 0,-10.08495 5.47739,-18.26041 12.23411,-18.26041 6.75672,0 12.23411,8.17546 12.23411,18.26041 z m -14.08077,3.92946 c 0,10.08494 -5.4774,18.26041 -12.23411,18.26041 -6.75672,0 -12.23412,-8.17547 -12.23412,-18.26041 0,-10.08494 5.4774,-18.26041 12.23412,-18.26041 6.75671,0 12.23411,8.17547 12.23411,18.26041 z m 7.61101,5.31632 c 0,10.08495 -5.4774,18.26041 -12.23411,18.26041 -6.75672,0 -12.23412,-8.17546 -12.23412,-18.26041 0,-10.08495 5.4774,-18.26041 12.23412,-18.26041 6.75671,0 12.23411,8.17546 12.23411,18.26041 z m -14.08077,3.92946 c 0,10.08494 -5.4774,18.26041 -12.23412,18.26041 -6.75671,0 -12.23411,-8.17547 -12.23411,-18.26041 0,-10.08494 5.4774,-18.26041 12.23411,-18.26041 6.75672,0 12.23412,8.17547 12.23412,18.26041 z m 15.87325,-34.22298 c 0,10.08495 -5.47739,18.26041 -12.23411,18.26041 -6.75672,0 -12.23411,-8.17546 -12.23411,-18.26041 0,-10.08495 5.47739,-18.26041 12.23411,-18.26041 6.75672,0 12.23411,8.17546 12.23411,18.26041 z m -14.08077,3.92946 c 0,10.08494 -5.4774,18.26041 -12.23411,18.26041 -6.75672,0 -12.23412,-8.17547 -12.23412,-18.26041 0,-10.08494 5.4774,-18.26041 12.23412,-18.26041 6.75671,0 12.23411,8.17547 12.23411,18.26041 z m 7.61101,5.31632 c 0,10.08495 -5.4774,18.26041 -12.23411,18.26041 -6.75672,0 -12.23412,-8.17546 -12.23412,-18.26041 0,-10.08495 5.4774,-18.26041 12.23412,-18.26041 6.75671,0 12.23411,8.17546 12.23411,18.26041 z m -14.08077,3.92946 c 0,10.08494 -5.4774,18.26041 -12.23412,18.26041 -6.75671,0 -12.23411,-8.17547 -12.23411,-18.26041 0,-10.08494 5.4774,-18.26041 12.23411,-18.26041 6.75672,0 12.23412,8.17547 12.23412,18.26041 z m 4.18007,7.8725 c 0,10.08495 -5.47739,18.26041 -12.23411,18.26041 -6.75672,0 -12.23411,-8.17546 -12.23411,-18.26041 0,-10.08495 5.47739,-18.26041 12.23411,-18.26041 6.75672,0 12.23411,8.17546 12.23411,18.26041 z m -14.08077,3.92946 c 0,10.08494 -5.4774,18.26041 -12.23411,18.26041 -6.75672,0 -12.23412,-8.17547 -12.23412,-18.26041 0,-10.08494 5.4774,-18.26041 12.23412,-18.26041 6.75671,0 12.23411,8.17547 12.23411,18.26041 z m 7.61101,5.31632 c 0,10.08495 -5.4774,18.26041 -12.23411,18.26041 -6.75672,0 -12.23412,-8.17546 -12.23412,-18.26041 0,-10.08495 5.4774,-18.26041 12.23412,-18.26041 6.75671,0 12.23411,8.17546 12.23411,18.26041 z m -14.08077,3.92946 c 0,10.08494 -5.4774,18.26041 -12.23412,18.26041 -6.75671,0 -12.23411,-8.17547 -12.23411,-18.26041 0,-10.08494 5.4774,-18.26041 12.23411,-18.26041 6.75672,0 12.23412,8.17547 12.23412,18.26041 z"
           inkscape:connector-curvature="0" />
      </g>
    </g>
    <g
       id="g5074"
       transform="matrix(-0.31888513,2.6364321,-2.9321479,-0.30803745,717.90501,701.16466)">
      <g
         transform="matrix(0.46107779,0,0,0.65891476,-256.26986,557.43029)"
         id="g5076" />
      <g
         transform="translate(-205.80011,49.111386)"
         id="g5078" />
    </g>
    <g
       transform="matrix(-2.6529152,0.12042802,-0.17991259,-2.9427895,383.5437,1327.701)"
       id="g5084"
       clip-path="url(#clipPath5378)"
       inkscape:export-filename="c:\users\mkrautz\desktop\globe.png"
       inkscape:export-xdpi="19.813515"
       inkscape:export-ydpi="19.813515">
      <g
         id="g5086"
         transform="matrix(0.46107779,0,0,0.65891476,-256.26986,557.43029)" />
      <g
         id="g5088"
         transform="translate(-205.80011,49.111386)">
        <path
           id="path5090"
           style="fill:url(#linearGradient5292);fill-opacity:1;stroke:none"
           d="m 216.32375,301.54577 c -0.0888,8.97612 -6.11459,16.29429 -13.45906,16.34557 -7.34447,0.0513 -13.22637,-7.18372 -13.13761,-16.15985 0.0888,-8.97612 6.11459,-16.29428 13.45906,-16.34556 7.34447,-0.0513 13.22637,7.18372 13.13761,16.15984 z m -15.34022,3.6043 c -0.0888,8.97612 -6.11459,16.29428 -13.45905,16.34557 -7.34447,0.0513 -13.22638,-7.18373 -13.13762,-16.15985 0.0888,-8.97612 6.1146,-16.29428 13.45907,-16.34557 7.34446,-0.0513 13.22637,7.18373 13.1376,16.15985 z m 8.22628,4.67403 c -0.0888,8.97612 -6.11459,16.29429 -13.45905,16.34557 -7.34447,0.0513 -13.22638,-7.18372 -13.13761,-16.15985 0.0888,-8.97612 6.11459,-16.29428 13.45906,-16.34556 7.34446,-0.0513 13.22637,7.18372 13.1376,16.15984 z m -15.34021,3.6043 c -0.0888,8.97612 -6.11459,16.29428 -13.45906,16.34557 -7.34447,0.0513 -13.22637,-7.18373 -13.13761,-16.15985 0.0888,-8.97612 6.11459,-16.29428 13.45906,-16.34557 7.34447,-0.0513 13.22637,7.18373 13.13761,16.15985 z m 25.16793,9.98408 c -0.0585,5.91451 -2.8511,10.72832 -6.23747,10.75197 -3.38637,0.0236 -6.08415,-4.75183 -6.02566,-10.66633 0.0585,-5.91451 2.8511,-10.72832 6.23747,-10.75197 3.38637,-0.0236 6.08415,4.75183 6.02566,10.66633 z m -7.07987,2.35379 c -0.0585,5.91449 -2.8511,10.72831 -6.23747,10.75196 -3.38638,0.0236 -6.08416,-4.75184 -6.02567,-10.66633 0.0585,-5.9145 2.8511,-10.72832 6.23748,-10.75197 3.38636,-0.0236 6.08415,4.75184 6.02566,10.66634 z m 3.78369,3.09121 c -0.0585,5.9145 -2.8511,10.72832 -6.23746,10.75197 -3.38638,0.0236 -6.08416,-4.75183 -6.02567,-10.66634 0.0585,-5.9145 2.8511,-10.72832 6.23747,-10.75196 3.38637,-0.0236 6.08415,4.75183 6.02566,10.66633 z m -7.07987,2.35378 c -0.0585,5.9145 -2.8511,10.72832 -6.23747,10.75197 -3.38637,0.0237 -6.08415,-4.75184 -6.02566,-10.66633 0.0585,-5.9145 2.8511,-10.72832 6.23747,-10.75197 3.38637,-0.0237 6.08415,4.75184 6.02566,10.66633 z m 8.15393,-20.12624 c -0.0585,5.9145 -2.85109,10.72832 -6.23747,10.75197 -3.38637,0.0236 -6.08414,-4.75183 -6.02566,-10.66634 0.0585,-5.9145 2.8511,-10.72831 6.23747,-10.75196 3.38638,-0.0237 6.08415,4.75183 6.02566,10.66633 z m -7.07987,2.35378 c -0.0585,5.9145 -2.8511,10.72832 -6.23747,10.75197 -3.38637,0.0236 -6.08415,-4.75184 -6.02566,-10.66633 0.0585,-5.9145 2.8511,-10.72832 6.23747,-10.75197 3.38637,-0.0237 6.08415,4.75184 6.02566,10.66633 z m 3.7837,3.09122 c -0.0585,5.9145 -2.8511,10.72832 -6.23747,10.75197 -3.38637,0.0236 -6.08415,-4.75183 -6.02567,-10.66634 0.0585,-5.9145 2.85111,-10.72832 6.23748,-10.75196 3.38637,-0.0237 6.08415,4.75183 6.02566,10.66633 z m -7.07988,2.35378 c -0.0585,5.9145 -2.8511,10.72832 -6.23747,10.75197 -3.38637,0.0236 -6.08415,-4.75184 -6.02566,-10.66633 0.0585,-5.9145 2.8511,-10.72832 6.23747,-10.75197 3.38637,-0.0237 6.08415,4.75184 6.02566,10.66633 z m 2.04934,4.60234 c -0.0585,5.91451 -2.8511,10.72832 -6.23747,10.75197 -3.38637,0.0237 -6.08415,-4.75183 -6.02566,-10.66633 0.0585,-5.91451 2.8511,-10.72832 6.23747,-10.75197 3.38637,-0.0236 6.08415,4.75183 6.02566,10.66633 z m -7.07988,2.35379 c -0.0585,5.91449 -2.8511,10.72832 -6.23746,10.75196 -3.38638,0.0236 -6.08416,-4.75183 -6.02567,-10.66633 0.0585,-5.9145 2.8511,-10.72832 6.23748,-10.75197 3.38636,-0.0236 6.08414,4.75184 6.02565,10.66634 z m 3.7837,3.09121 c -0.0585,5.9145 -2.8511,10.72832 -6.23747,10.75197 -3.38637,0.0236 -6.08415,-4.75183 -6.02566,-10.66634 0.0585,-5.9145 2.8511,-10.72831 6.23747,-10.75196 3.38637,-0.0236 6.08415,4.75183 6.02566,10.66633 z m -7.07987,2.35378 c -0.0585,5.9145 -2.8511,10.72832 -6.23747,10.75197 -3.38637,0.0236 -6.08415,-4.75184 -6.02566,-10.66633 0.0585,-5.9145 2.8511,-10.72832 6.23747,-10.75197 3.38637,-0.0237 6.08415,4.75184 6.02566,10.66633 z m -8.67862,-47.69207 c 8.38721,1.28319 14.05074,8.52116 12.64986,16.16646 -1.40088,7.6453 -9.33569,12.80281 -17.7229,11.51962 -8.3872,-1.28319 -14.05073,-8.52116 -12.64985,-16.16646 1.40088,-7.6453 9.33569,-12.80281 17.72289,-11.51962 z m 0.34857,16.43253 c 8.38721,1.28319 14.05074,8.52116 12.64986,16.16646 -1.40088,7.6453 -9.33569,12.80281 -17.7229,11.51962 -8.3872,-1.28318 -14.05073,-8.52116 -12.64985,-16.16646 1.40088,-7.6453 9.33569,-12.80281 17.72289,-11.51962 z m 5.99936,-7.9355 c 8.3872,1.28319 14.05073,8.52116 12.64985,16.16645 -1.40088,7.6453 -9.33569,12.80281 -17.72289,11.51963 -8.38721,-1.28319 -14.05074,-8.52117 -12.64986,-16.16646 1.40088,-7.6453 9.33569,-12.80281 17.7229,-11.51962 z m 0.34856,16.43253 c 8.3872,1.28319 14.05074,8.52116 12.64986,16.16645 -1.40088,7.64531 -9.33569,12.80281 -17.7229,11.51963 -8.3872,-1.28319 -14.05073,-8.52116 -12.64985,-16.16646 1.40088,-7.6453 9.33569,-12.80281 17.72289,-11.51962 z m 14.31359,-24.85091 c 5.52645,0.84551 9.48291,4.38856 8.837,7.91365 -0.64592,3.52508 -5.64961,5.69729 -11.17606,4.85178 -5.52646,-0.84552 -9.48291,-4.38857 -8.837,-7.91365 0.64592,-3.52509 5.64961,-5.6973 11.17606,-4.85178 z m 0.80724,7.67558 c 5.52645,0.84552 9.48291,4.38858 8.83699,7.91365 -0.64591,3.52509 -5.64961,5.6973 -11.17606,4.85179 -5.52644,-0.84551 -9.4829,-4.38858 -8.83699,-7.91366 0.64592,-3.52507 5.64961,-5.69729 11.17606,-4.85178 z m 3.64088,-3.52506 c 5.52645,0.84552 9.4829,4.38858 8.83699,7.91365 -0.64592,3.52509 -5.64961,5.6973 -11.17606,4.85179 -5.52645,-0.84551 -9.48291,-4.38858 -8.83699,-7.91366 0.64591,-3.52507 5.6496,-5.69729 11.17606,-4.85178 z m 0.80724,7.67559 c 5.52644,0.84551 9.4829,4.38857 8.83699,7.91366 -0.64592,3.52507 -5.64961,5.69729 -11.17606,4.85178 -5.52645,-0.84551 -9.48291,-4.38858 -8.83699,-7.91366 0.64591,-3.52507 5.64961,-5.69729 11.17606,-4.85178 z m -17.23645,-11.15053 c 5.52646,0.84551 9.48291,4.38857 8.837,7.91365 -0.64592,3.52508 -5.6496,5.6973 -11.17606,4.85178 -5.52645,-0.84551 -9.48291,-4.38857 -8.83699,-7.91365 0.64591,-3.52508 5.6496,-5.69729 11.17605,-4.85178 z m 0.80725,7.67559 c 5.52645,0.84551 9.4829,4.38857 8.83699,7.91365 -0.64591,3.52508 -5.64961,5.6973 -11.17606,4.85178 -5.52645,-0.8455 -9.48291,-4.38857 -8.83699,-7.91365 0.64591,-3.52508 5.64961,-5.6973 11.17606,-4.85178 z m 3.64087,-3.52506 c 5.52646,0.84551 9.48291,4.38857 8.83699,7.91365 -0.64591,3.52508 -5.6496,5.6973 -11.17606,4.85178 -5.52645,-0.84551 -9.48291,-4.38857 -8.83699,-7.91365 0.64592,-3.52508 5.6496,-5.6973 11.17606,-4.85178 z m 0.80724,7.67558 c 5.52645,0.84552 9.48291,4.38858 8.83699,7.91366 -0.64591,3.52508 -5.64961,5.69729 -11.17606,4.85178 -5.52645,-0.84551 -9.4829,-4.38857 -8.83699,-7.91365 0.64591,-3.52508 5.64961,-5.6973 11.17606,-4.85179 z m 4.71365,-1.52078 c 5.52645,0.84552 9.48291,4.38857 8.837,7.91365 -0.64592,3.52509 -5.64961,5.6973 -11.17606,4.85178 -5.52646,-0.84551 -9.48291,-4.38857 -8.837,-7.91365 0.64592,-3.52508 5.64961,-5.69729 11.17606,-4.85178 z m 0.80724,7.67559 c 5.52645,0.84551 9.48291,4.38858 8.83699,7.91366 -0.64591,3.52507 -5.64961,5.69729 -11.17606,4.85178 -5.52644,-0.84551 -9.4829,-4.38858 -8.83699,-7.91366 0.64592,-3.52507 5.64961,-5.69729 11.17606,-4.85178 z m 3.64088,-3.52506 c 5.52645,0.84551 9.4829,4.38857 8.83699,7.91365 -0.64592,3.52508 -5.64961,5.6973 -11.17606,4.85178 -5.52645,-0.8455 -9.48291,-4.38857 -8.83699,-7.91365 0.64591,-3.52508 5.6496,-5.69729 11.17606,-4.85178 z m 0.80724,7.67559 c 5.52644,0.84551 9.4829,4.38858 8.83699,7.91365 -0.64592,3.52508 -5.64961,5.6973 -11.17606,4.85179 -5.52645,-0.84552 -9.48291,-4.38858 -8.83699,-7.91366 0.64591,-3.52507 5.64961,-5.69729 11.17606,-4.85178 z"
           inkscape:connector-curvature="0" />
      </g>
    </g>
    <g
       transform="translate(66.049299,-112.75321)"
       id="g5178"
       clip-path="url(#clipPath5372)"
       inkscape:export-filename="c:\users\mkrautz\desktop\globe.png"
       inkscape:export-xdpi="19.813515"
       inkscape:export-ydpi="19.813515">
      <path
         inkscape:connector-curvature="0"
         d="m 273.03593,513.54008 c 0,15.30539 -11.87955,27.71286 -26.53373,27.71286 -14.65418,0 -26.53373,-12.40747 -26.53373,-27.71286 0,-15.30539 11.87955,-27.71285 26.53373,-27.71285 14.65418,0 26.53373,12.40746 26.53373,27.71285 z m -30.53882,5.96353 c 0,15.30539 -11.87956,27.71286 -26.53373,27.71286 -14.65418,0 -26.53374,-12.40747 -26.53374,-27.71286 0,-15.30538 11.87956,-27.71285 26.53374,-27.71285 14.65417,0 26.53373,12.40747 26.53373,27.71285 z m 16.50699,8.0683 c 0,15.30539 -11.87955,27.71286 -26.53372,27.71286 -14.65418,0 -26.53374,-12.40747 -26.53374,-27.71286 0,-15.30539 11.87956,-27.71285 26.53374,-27.71285 14.65417,0 26.53372,12.40746 26.53372,27.71285 z m -30.53882,5.96353 c 0,15.30539 -11.87955,27.71286 -26.53373,27.71286 -14.65418,0 -26.53373,-12.40747 -26.53373,-27.71286 0,-15.30538 11.87955,-27.71285 26.53373,-27.71285 14.65418,0 26.53373,12.40747 26.53373,27.71285 z"
         style="fill:url(#linearGradient5290);fill-opacity:1;stroke:none"
         id="path5180" />
    </g>
    <g
       style="fill-rule:nonzero"
       id="g5186"
       transform="matrix(-1.2232003,0.05552669,-0.11854706,-1.9390474,984.7668,38.135329)" />
  </g>
</svg>
